<svg width="500" height="500" viewBox="0 0 500 500" fill="none" xmlns="http://www.w3.org/2000/svg">
<g clip-path="url(#clip0_2467_10)">
<path fill-rule="evenodd" clip-rule="evenodd" d="M250 500C388.071 500 500 388.071 500 250C500 111.929 388.071 0 250 0C111.929 0 0 111.929 0 250C0 388.071 111.929 500 250 500ZM160 150C154.477 150 150 154.477 150 160V190C150 195.523 154.477 200 160 200H340C345.523 200 350 195.523 350 190V160C350 154.477 345.523 150 340 150H160ZM150 235C150 229.477 154.477 225 160 225H340C345.523 225 350 229.477 350 235V265C350 270.523 345.523 275 340 275H160C154.477 275 150 270.523 150 265V235ZM160 300C154.477 300 150 304.477 150 310V340C150 345.523 154.477 350 160 350H264C269.523 350 274 345.523 274 340V310C274 304.477 269.523 300 264 300H160Z" fill="url(#paint0_radial_2467_10)"/>
</g>
<defs>
<radialGradient id="paint0_radial_2467_10" cx="0" cy="0" r="1" gradientUnits="userSpaceOnUse" gradientTransform="translate(250 250) rotate(90) scale(250)">
<stop offset="0.338542" stop-color="#3600E6"/>
<stop offset="1" stop-color="white" stop-opacity="0"/>
</radialGradient>
<clipPath id="clip0_2467_10">
<rect width="500" height="500" fill="white"/>
</clipPath>
</defs>
</svg>
